<svg width="188" height="63" viewBox="0 0 188 63" fill="none" xmlns="http://www.w3.org/2000/svg">
<rect opacity="0.1" x="0.5" y="0.5" width="187" height="62" rx="9.5" stroke="#0082F4"/>
<path d="M83.4766 32.7578H80.5156V31.2031H83.4766C83.9922 31.2031 84.4089 31.1198 84.7266 30.9531C85.0443 30.7865 85.276 30.5573 85.4219 30.2656C85.5729 29.9688 85.6484 29.6302 85.6484 29.25C85.6484 28.8906 85.5729 28.5547 85.4219 28.2422C85.276 27.9245 85.0443 27.6693 84.7266 27.4766C84.4089 27.2839 83.9922 27.1875 83.4766 27.1875H81.1172V37H79.1562V25.625H83.4766C84.3568 25.625 85.1042 25.7812 85.7188 26.0938C86.3385 26.401 86.8099 26.8281 87.1328 27.375C87.4557 27.9167 87.6172 28.5365 87.6172 29.2344C87.6172 29.9688 87.4557 30.599 87.1328 31.125C86.8099 31.651 86.3385 32.0547 85.7188 32.3359C85.1042 32.6172 84.3568 32.7578 83.4766 32.7578ZM91.2031 25V37H89.3125V25H91.2031ZM98.0312 35.3047V31.2734C98.0312 30.9714 97.9766 30.7109 97.8672 30.4922C97.7578 30.2734 97.5911 30.1042 97.3672 29.9844C97.1484 29.8646 96.8724 29.8047 96.5391 29.8047C96.2318 29.8047 95.9661 29.8568 95.7422 29.9609C95.5182 30.0651 95.3438 30.2057 95.2188 30.3828C95.0938 30.5599 95.0312 30.7604 95.0312 30.9844H93.1562C93.1562 30.651 93.237 30.3281 93.3984 30.0156C93.5599 29.7031 93.7943 29.4245 94.1016 29.1797C94.4089 28.9349 94.776 28.7422 95.2031 28.6016C95.6302 28.4609 96.1094 28.3906 96.6406 28.3906C97.276 28.3906 97.8385 28.4974 98.3281 28.7109C98.8229 28.9245 99.2109 29.2474 99.4922 29.6797C99.7786 30.1068 99.9219 30.6432 99.9219 31.2891V35.0469C99.9219 35.4323 99.9479 35.7786 100 36.0859C100.057 36.388 100.138 36.651 100.242 36.875V37H98.3125C98.224 36.7969 98.1536 36.5391 98.1016 36.2266C98.0547 35.9089 98.0312 35.6016 98.0312 35.3047ZM98.3047 31.8594L98.3203 33.0234H96.9688C96.6198 33.0234 96.3125 33.0573 96.0469 33.125C95.7812 33.1875 95.5599 33.2812 95.3828 33.4062C95.2057 33.5312 95.0729 33.6823 94.9844 33.8594C94.8958 34.0365 94.8516 34.237 94.8516 34.4609C94.8516 34.6849 94.9036 34.8906 95.0078 35.0781C95.112 35.2604 95.263 35.4036 95.4609 35.5078C95.6641 35.612 95.9089 35.6641 96.1953 35.6641C96.5807 35.6641 96.9167 35.5859 97.2031 35.4297C97.4948 35.2682 97.724 35.0729 97.8906 34.8438C98.0573 34.6094 98.1458 34.388 98.1562 34.1797L98.7656 35.0156C98.7031 35.2292 98.5964 35.4583 98.4453 35.7031C98.2943 35.9479 98.0964 36.1823 97.8516 36.4062C97.612 36.625 97.3229 36.8047 96.9844 36.9453C96.651 37.0859 96.2656 37.1562 95.8281 37.1562C95.276 37.1562 94.7839 37.0469 94.3516 36.8281C93.9193 36.6042 93.5807 36.3047 93.3359 35.9297C93.0911 35.5495 92.9688 35.1198 92.9688 34.6406C92.9688 34.1927 93.0521 33.7969 93.2188 33.4531C93.3906 33.1042 93.6406 32.8125 93.9688 32.5781C94.3021 32.3438 94.7083 32.1667 95.1875 32.0469C95.6667 31.9219 96.2135 31.8594 96.8281 31.8594H98.3047ZM104.219 36.0781L106.516 28.5469H108.531L105.141 38.2891C105.062 38.4974 104.961 38.724 104.836 38.9688C104.711 39.2135 104.547 39.4453 104.344 39.6641C104.146 39.888 103.898 40.0677 103.602 40.2031C103.305 40.3438 102.945 40.4141 102.523 40.4141C102.357 40.4141 102.195 40.3984 102.039 40.3672C101.888 40.3411 101.745 40.3125 101.609 40.2812L101.602 38.8438C101.654 38.849 101.716 38.8542 101.789 38.8594C101.867 38.8646 101.93 38.8672 101.977 38.8672C102.289 38.8672 102.549 38.8281 102.758 38.75C102.966 38.6771 103.135 38.5573 103.266 38.3906C103.401 38.224 103.516 38 103.609 37.7188L104.219 36.0781ZM102.922 28.5469L104.93 34.875L105.266 36.8594L103.961 37.1953L100.891 28.5469H102.922ZM117.68 34.9219L120.672 25.625H122.836L118.758 37H117.297L117.68 34.9219ZM114.914 25.625L117.883 34.9219L118.289 37H116.82L112.758 25.625H114.914ZM125.938 28.5469V37H124.047V28.5469H125.938ZM123.922 26.3281C123.922 26.0417 124.016 25.8047 124.203 25.6172C124.396 25.4245 124.661 25.3281 125 25.3281C125.333 25.3281 125.596 25.4245 125.789 25.6172C125.982 25.8047 126.078 26.0417 126.078 26.3281C126.078 26.6094 125.982 26.8438 125.789 27.0312C125.596 27.2188 125.333 27.3125 125 27.3125C124.661 27.3125 124.396 27.2188 124.203 27.0312C124.016 26.8438 123.922 26.6094 123.922 26.3281ZM133.156 35.25V25H135.047V37H133.336L133.156 35.25ZM127.656 32.8672V32.7031C127.656 32.0625 127.732 31.4792 127.883 30.9531C128.034 30.4219 128.253 29.9661 128.539 29.5859C128.826 29.2005 129.174 28.9062 129.586 28.7031C129.997 28.4948 130.461 28.3906 130.977 28.3906C131.487 28.3906 131.935 28.4896 132.32 28.6875C132.706 28.8854 133.034 29.1693 133.305 29.5391C133.576 29.9036 133.792 30.3411 133.953 30.8516C134.115 31.3568 134.229 31.9193 134.297 32.5391V33.0625C134.229 33.6667 134.115 34.2188 133.953 34.7188C133.792 35.2188 133.576 35.651 133.305 36.0156C133.034 36.3802 132.703 36.6615 132.312 36.8594C131.927 37.0573 131.477 37.1562 130.961 37.1562C130.451 37.1562 129.99 37.0495 129.578 36.8359C129.172 36.6224 128.826 36.3229 128.539 35.9375C128.253 35.5521 128.034 35.099 127.883 34.5781C127.732 34.0521 127.656 33.4818 127.656 32.8672ZM129.539 32.7031V32.8672C129.539 33.2526 129.573 33.612 129.641 33.9453C129.714 34.2786 129.826 34.5729 129.977 34.8281C130.128 35.0781 130.323 35.276 130.562 35.4219C130.807 35.5625 131.099 35.6328 131.438 35.6328C131.865 35.6328 132.216 35.5391 132.492 35.3516C132.768 35.1641 132.984 34.9115 133.141 34.5938C133.302 34.2708 133.411 33.9115 133.469 33.5156V32.1016C133.438 31.7943 133.372 31.5078 133.273 31.2422C133.18 30.9766 133.052 30.7448 132.891 30.5469C132.729 30.3438 132.529 30.1875 132.289 30.0781C132.055 29.9635 131.776 29.9062 131.453 29.9062C131.109 29.9062 130.818 29.9792 130.578 30.125C130.339 30.2708 130.141 30.4714 129.984 30.7266C129.833 30.9818 129.721 31.2786 129.648 31.6172C129.576 31.9557 129.539 32.3177 129.539 32.7031ZM140.742 37.1562C140.117 37.1562 139.552 37.0547 139.047 36.8516C138.547 36.6432 138.12 36.3542 137.766 35.9844C137.417 35.6146 137.148 35.1797 136.961 34.6797C136.773 34.1797 136.68 33.6406 136.68 33.0625V32.75C136.68 32.0885 136.776 31.4896 136.969 30.9531C137.161 30.4167 137.43 29.9583 137.773 29.5781C138.117 29.1927 138.523 28.8984 138.992 28.6953C139.461 28.4922 139.969 28.3906 140.516 28.3906C141.12 28.3906 141.648 28.4922 142.102 28.6953C142.555 28.8984 142.93 29.1849 143.227 29.5547C143.529 29.9193 143.753 30.3542 143.898 30.8594C144.049 31.3646 144.125 31.9219 144.125 32.5312V33.3359H137.594V31.9844H142.266V31.8359C142.255 31.4974 142.188 31.1797 142.062 30.8828C141.943 30.5859 141.758 30.3464 141.508 30.1641C141.258 29.9818 140.924 29.8906 140.508 29.8906C140.195 29.8906 139.917 29.9583 139.672 30.0938C139.432 30.224 139.232 30.4141 139.07 30.6641C138.909 30.9141 138.784 31.2161 138.695 31.5703C138.612 31.9193 138.57 32.3125 138.57 32.75V33.0625C138.57 33.4323 138.62 33.776 138.719 34.0938C138.823 34.4062 138.974 34.6797 139.172 34.9141C139.37 35.1484 139.609 35.3333 139.891 35.4688C140.172 35.599 140.492 35.6641 140.852 35.6641C141.305 35.6641 141.708 35.5729 142.062 35.3906C142.417 35.2083 142.724 34.9505 142.984 34.6172L143.977 35.5781C143.794 35.8438 143.557 36.099 143.266 36.3438C142.974 36.5833 142.617 36.7786 142.195 36.9297C141.779 37.0807 141.294 37.1562 140.742 37.1562ZM145.234 32.8672V32.6875C145.234 32.0781 145.323 31.513 145.5 30.9922C145.677 30.4661 145.932 30.0104 146.266 29.625C146.604 29.2344 147.016 28.9323 147.5 28.7188C147.99 28.5 148.542 28.3906 149.156 28.3906C149.776 28.3906 150.328 28.5 150.812 28.7188C151.302 28.9323 151.716 29.2344 152.055 29.625C152.393 30.0104 152.651 30.4661 152.828 30.9922C153.005 31.513 153.094 32.0781 153.094 32.6875V32.8672C153.094 33.4766 153.005 34.0417 152.828 34.5625C152.651 35.0833 152.393 35.5391 152.055 35.9297C151.716 36.3151 151.305 36.6172 150.82 36.8359C150.336 37.0495 149.786 37.1562 149.172 37.1562C148.552 37.1562 147.997 37.0495 147.508 36.8359C147.023 36.6172 146.612 36.3151 146.273 35.9297C145.935 35.5391 145.677 35.0833 145.5 34.5625C145.323 34.0417 145.234 33.4766 145.234 32.8672ZM147.117 32.6875V32.8672C147.117 33.2474 147.156 33.6068 147.234 33.9453C147.312 34.2839 147.435 34.5807 147.602 34.8359C147.768 35.0911 147.982 35.2917 148.242 35.4375C148.503 35.5833 148.812 35.6562 149.172 35.6562C149.521 35.6562 149.823 35.5833 150.078 35.4375C150.339 35.2917 150.552 35.0911 150.719 34.8359C150.885 34.5807 151.008 34.2839 151.086 33.9453C151.169 33.6068 151.211 33.2474 151.211 32.8672V32.6875C151.211 32.3125 151.169 31.9583 151.086 31.625C151.008 31.2865 150.883 30.987 150.711 30.7266C150.544 30.4661 150.331 30.263 150.07 30.1172C149.815 29.9661 149.51 29.8906 149.156 29.8906C148.802 29.8906 148.495 29.9661 148.234 30.1172C147.979 30.263 147.768 30.4661 147.602 30.7266C147.435 30.987 147.312 31.2865 147.234 31.625C147.156 31.9583 147.117 32.3125 147.117 32.6875Z" fill="black"/>
<circle cx="48.5" cy="31.5" r="14.5" fill="#0082F4"/>
<path d="M54.0206 31.2402C54.2206 31.3557 54.2206 31.6443 54.0206 31.7598L45.9647 36.4109C45.7647 36.5264 45.5147 36.382 45.5147 36.1511L45.5147 26.8489C45.5147 26.618 45.7647 26.4737 45.9647 26.5891L54.0206 31.2402Z" fill="white"/>
</svg>
